# xmcd
#
# Track frame offsets: 
#        150
#        752
#        12299
#        21720
#        34809
#        45397
#        55866
#        68779
#        77134
#        91812
#        100976
#        112715
#        123283
#        132443
#        142734
#        153728
#        164250
#        172401
#        180380
#        191030
#        201848
#        211454
#        222524
#        232114
#        243183
#        252575
#        261131
#
# Disc length: 3639 seconds
#
# Revision: 0
# Processed by: cddbd v1.5.2PL0 Copyright (c) Steve Scherf et al.
# Submitted via: ExactAudioCopyFreeDBPlugin 1.0
#
DISCID=7a0e351b
DTITLE=Eddie Cooley and the Dimples - Fever 1956-61
DYEAR=2006
DGENRE=R&B
TTITLE0=Studio Talk
TTITLE1=Priscilla
TTITLE2=Got A Little Woman
TTITLE3=Driftwood
TTITLE4=A Spark Met A Flame
TTITLE5=Hey You
TTITLE6=Pull Mon Pull
TTITLE7=Juicy Fruit  (unreleased)
TTITLE8=The Wildest Time  (unreleased)
TTITLE9=Betty Lou  (unreleased)
TTITLE10=Let's Carve Our Names  (unreleased)
TTITLE11=Harry And Carry  (unrealsed)
TTITLE12=Be My Steady  (Clementine)
TTITLE13=Leona
TTITLE14=Priscilla  (unrealsed alternative take)
TTITLE15=Fever
TTITLE16=Lay It On
TTITLE17=Otis Blackwell - All Shook Up
TTITLE18=Winfield Scott - Tweedle Dee
TTITLE19=Ollie Jones - Send For Me
TTITLE20=Lincoln Chase - Jim Dandy
TTITLE21=Billy Dawn - The Angels Listened In
TTITLE22=Billy Dawn - When I Saw You
TTITLE23=Lincoln Chase - Hot Biscuits And Sweet Marie
TTITLE24=Ollie Jones - Come On, Come On
TTITLE25=Otis Blackwell - Music And Fire
TTITLE26=Winfield Scott - Some Cold Night Now
EXTD=
EXTT0=
EXTT1=
EXTT2=
EXTT3=
EXTT4=
EXTT5=
EXTT6=
EXTT7=
EXTT8=
EXTT9=
EXTT10=
EXTT11=
EXTT12=
EXTT13=
EXTT14=
EXTT15=
EXTT16=
EXTT17=
EXTT18=
EXTT19=
EXTT20=
EXTT21=
EXTT22=
EXTT23=
EXTT24=
EXTT25=
EXTT26=
PLAYORDER=
